<svg width="55" height="58" viewBox="0 0 55 58" fill="none" xmlns="http://www.w3.org/2000/svg">
<path d="M13.6811 14.5446L12.1797 12.9494C22.2492 4.41102 33.3649 4.03236 44.1776 12.9494L42.77 14.5446" stroke="black" stroke-width="0.187671"/>
<g filter="url(#filter0_dd_194_221)">
<path d="M13.6811 14.5446L12.1797 12.9494C22.2492 4.41102 33.3649 4.03236 44.1776 12.9494L42.77 14.5446" stroke="#03D9E7" stroke-width="0.938354"/>
</g>
<g filter="url(#filter1_dd_194_221)">
<path d="M31.8174 49.4603L32.1116 51.6506C18.8259 52.6798 9.48002 46.4235 5.84951 32.7504L7.94283 32.2783" stroke="#03D9E7" stroke-width="0.938354"/>
</g>
<g filter="url(#filter2_dd_194_221)">
<path d="M13.8787 14.0752C8.74662 19.8561 7.72746 24.1137 7.98329 32.8423" stroke="#03D9E7" stroke-width="0.982569"/>
</g>
<g filter="url(#filter3_dd_194_221)">
<path d="M48.6916 28.4439C48.7892 22.3699 47.2158 19.3105 42.5925 14.2396" stroke="#03D9E7" stroke-width="0.772135"/>
</g>
<g filter="url(#filter4_dd_194_221)">
<path d="M48.4935 27.9629H49.5256C49.7544 40.3453 42.098 47.6845 32.0723 49.9204" stroke="#03D9E7" stroke-width="0.982569"/>
</g>
<g filter="url(#filter5_dd_194_221)">
<path d="M7.76953 33.9683C12.1354 44.8765 17.5077 49.6718 29.8208 49.8264" stroke="#FAFF00" stroke-width="0.563012" stroke-linecap="round" stroke-dasharray="1.13 1.13"/>
</g>
<g filter="url(#filter6_dd_194_221)">
<path d="M41.7793 12.8047C31.8187 6.57262 24.652 5.87012 14.6187 13.0095" stroke="#FAFF00" stroke-width="0.563012" stroke-linecap="round" stroke-dasharray="1.13 1.13"/>
</g>
<g filter="url(#filter7_d_194_221)">
<path d="M23.5282 10.5093C3.73202 16.7962 5.70208 42.9763 23.5282 47.4804M23.5282 10.5093C3.73202 16.7962 5.70208 42.9763 23.5282 47.4804" stroke="#F44A4A" stroke-width="0.750683"/>
</g>
<path d="M39.7707 35.4735C46.2777 22.7993 32.5826 11.1058 21.7751 17.6059M39.7707 35.4735C46.2777 22.7993 32.5826 11.1058 21.7751 17.6059" stroke="#24E743" stroke-width="0.750683"/>
<path d="M16.8106 22.2365C10.1407 35.1538 24.0875 47.1185 35.1309 40.5115M16.8106 22.2365C10.1407 35.1538 24.0875 47.1185 35.1309 40.5115" stroke="#24E743" stroke-width="0.750683"/>
<g filter="url(#filter8_d_194_221)">
<path d="M33.0109 47.6685C52.807 41.3815 50.837 15.2014 33.0109 10.6973M33.0109 47.6685C52.807 41.3815 50.837 15.2014 33.0109 10.6973" stroke="#F44A4A" stroke-width="0.750683"/>
</g>
<path d="M13.4902 29.0886C13.9594 20.6434 19.6834 14.3564 28.2224 14.3564" stroke="#8788D3" stroke-width="0.563012" stroke-linecap="square"/>
<g filter="url(#filter9_dd_194_221)">
<path d="M12.9277 28.6194C13.3969 20.1742 19.1209 13.8872 27.6599 13.8872" stroke="#8788D3" stroke-width="0.938354" stroke-linecap="square" stroke-dasharray="2.44 2.44"/>
</g>
<path d="M43.0464 28.9082C42.6861 37.3588 37.0437 43.719 28.5054 43.8291" stroke="#8788D3" stroke-width="0.563012" stroke-linecap="square"/>
<g filter="url(#filter10_d_194_221)">
<path d="M43.6167 29.3701C43.2564 37.8207 37.614 44.1809 29.0757 44.291" stroke="#8788D3" stroke-width="0.938354" stroke-linecap="square" stroke-dasharray="2.44 2.44"/>
</g>
<g filter="url(#filter11_d_194_221)">
<path d="M36.4723 32.0462L36.4982 31.9596C37.1677 30.0433 37.1677 27.9567 36.4982 26.0404L36.4723 25.9538C35.8407 24.2127 34.6892 22.7077 33.1738 21.6427C31.6584 20.5778 29.8523 20.0043 28.0002 20C26.1474 20.0018 24.3402 20.5743 22.8243 21.6396C21.3084 22.7049 20.1575 24.2113 19.528 25.9538L19.5021 26.0404C18.8326 27.9567 18.8326 30.0433 19.5021 31.9596L19.528 32.0462C20.1575 33.7887 21.3084 35.2951 22.8243 36.3604C24.3402 37.4257 26.1474 37.9982 28.0002 38C29.8529 37.9982 31.6602 37.4257 33.176 36.3604C34.6919 35.2951 35.8428 33.7887 36.4723 32.0462ZM25.7934 32.4615H30.2069C29.7634 33.8381 29.0083 35.0938 28.0002 36.1308C26.9921 35.0938 26.2369 33.8381 25.7934 32.4615ZM25.43 31.0769C25.1647 29.705 25.1647 28.295 25.43 26.9231H30.5704C30.7021 27.6076 30.7687 28.303 30.7694 29C30.7692 29.6971 30.7025 30.3925 30.5704 31.0769H25.43ZM20.3848 29C20.3862 28.298 20.4823 27.5994 20.6704 26.9231H24.0194C23.7886 28.2981 23.7886 29.7019 24.0194 31.0769H20.6704C20.4823 30.4006 20.3862 29.702 20.3848 29ZM30.2069 25.5385H25.7934C26.2369 24.1619 26.9921 22.9062 28.0002 21.8692C29.0083 22.9062 29.7634 24.1619 30.2069 25.5385ZM31.9809 26.9231H35.33C35.7108 28.2815 35.7108 29.7185 35.33 31.0769H31.9809C32.2117 29.7019 32.2117 28.2981 31.9809 26.9231ZM34.7848 25.5385H31.6694C31.253 24.0806 30.5433 22.723 29.5838 21.549C30.6917 21.7883 31.7328 22.2701 32.6321 22.9599C33.5314 23.6498 34.2666 24.5304 34.7848 25.5385ZM26.4165 21.549C25.457 22.723 24.7473 24.0806 24.3309 25.5385H21.2155C21.7337 24.5304 22.4689 23.6498 23.3682 22.9599C24.2675 22.2701 25.3086 21.7883 26.4165 21.549ZM21.2155 32.4615H24.3309C24.7473 33.9194 25.457 35.277 26.4165 36.451C25.3079 36.2135 24.2661 35.7323 23.3665 35.0422C22.467 34.3522 21.7322 33.4707 21.2155 32.4615ZM29.5838 36.451C30.5433 35.277 31.253 33.9194 31.6694 32.4615H34.7848C34.2681 33.4707 33.5334 34.3522 32.6338 35.0422C31.7342 35.7323 30.6924 36.2135 29.5838 36.451Z" fill="#F8F8F8"/>
</g>
<defs>
<filter id="filter0_dd_194_221" x="6.80823" y="1.99251" width="42.7331" height="18.3162" filterUnits="userSpaceOnUse" color-interpolation-filters="sRGB">
<feFlood flood-opacity="0" result="BackgroundImageFix"/>
<feColorMatrix in="SourceAlpha" type="matrix" values="0 0 0 0 0 0 0 0 0 0 0 0 0 0 0 0 0 0 127 0" result="hardAlpha"/>
<feOffset dy="0.750683"/>
<feGaussianBlur stdDeviation="2.34588"/>
<feComposite in2="hardAlpha" operator="out"/>
<feColorMatrix type="matrix" values="0 0 0 0 0.0117647 0 0 0 0 0.85098 0 0 0 0 0.905882 0 0 0 1 0"/>
<feBlend mode="normal" in2="BackgroundImageFix" result="effect1_dropShadow_194_221"/>
<feColorMatrix in="SourceAlpha" type="matrix" values="0 0 0 0 0 0 0 0 0 0 0 0 0 0 0 0 0 0 127 0" result="hardAlpha"/>
<feOffset dy="0.750683"/>
<feGaussianBlur stdDeviation="2.34588"/>
<feComposite in2="hardAlpha" operator="out"/>
<feColorMatrix type="matrix" values="0 0 0 0 0.0117647 0 0 0 0 0.85098 0 0 0 0 0.905882 0 0 0 1 0"/>
<feBlend mode="normal" in2="effect1_dropShadow_194_221" result="effect2_dropShadow_194_221"/>
<feBlend mode="normal" in="SourceGraphic" in2="effect2_dropShadow_194_221" result="shape"/>
</filter>
<filter id="filter1_dd_194_221" x="0.579715" y="27.8797" width="36.7546" height="29.7913" filterUnits="userSpaceOnUse" color-interpolation-filters="sRGB">
<feFlood flood-opacity="0" result="BackgroundImageFix"/>
<feColorMatrix in="SourceAlpha" type="matrix" values="0 0 0 0 0 0 0 0 0 0 0 0 0 0 0 0 0 0 127 0" result="hardAlpha"/>
<feOffset dy="0.750683"/>
<feGaussianBlur stdDeviation="2.34588"/>
<feComposite in2="hardAlpha" operator="out"/>
<feColorMatrix type="matrix" values="0 0 0 0 0.0117647 0 0 0 0 0.85098 0 0 0 0 0.905882 0 0 0 1 0"/>
<feBlend mode="normal" in2="BackgroundImageFix" result="effect1_dropShadow_194_221"/>
<feColorMatrix in="SourceAlpha" type="matrix" values="0 0 0 0 0 0 0 0 0 0 0 0 0 0 0 0 0 0 127 0" result="hardAlpha"/>
<feOffset dy="0.750683"/>
<feGaussianBlur stdDeviation="2.34588"/>
<feComposite in2="hardAlpha" operator="out"/>
<feColorMatrix type="matrix" values="0 0 0 0 0.0117647 0 0 0 0 0.85098 0 0 0 0 0.905882 0 0 0 1 0"/>
<feBlend mode="normal" in2="effect1_dropShadow_194_221" result="effect2_dropShadow_194_221"/>
<feBlend mode="normal" in="SourceGraphic" in2="effect2_dropShadow_194_221" result="shape"/>
</filter>
<filter id="filter2_dd_194_221" x="2.76331" y="9.80794" width="16.1746" height="28.491" filterUnits="userSpaceOnUse" color-interpolation-filters="sRGB">
<feFlood flood-opacity="0" result="BackgroundImageFix"/>
<feColorMatrix in="SourceAlpha" type="matrix" values="0 0 0 0 0 0 0 0 0 0 0 0 0 0 0 0 0 0 127 0" result="hardAlpha"/>
<feOffset dy="0.750683"/>
<feGaussianBlur stdDeviation="2.34588"/>
<feComposite in2="hardAlpha" operator="out"/>
<feColorMatrix type="matrix" values="0 0 0 0 0.0117647 0 0 0 0 0.85098 0 0 0 0 0.905882 0 0 0 1 0"/>
<feBlend mode="normal" in2="BackgroundImageFix" result="effect1_dropShadow_194_221"/>
<feColorMatrix in="SourceAlpha" type="matrix" values="0 0 0 0 0 0 0 0 0 0 0 0 0 0 0 0 0 0 127 0" result="hardAlpha"/>
<feOffset dy="0.750683"/>
<feGaussianBlur stdDeviation="2.34588"/>
<feComposite in2="hardAlpha" operator="out"/>
<feColorMatrix type="matrix" values="0 0 0 0 0.0117647 0 0 0 0 0.85098 0 0 0 0 0.905882 0 0 0 1 0"/>
<feBlend mode="normal" in2="effect1_dropShadow_194_221" result="effect2_dropShadow_194_221"/>
<feBlend mode="normal" in="SourceGraphic" in2="effect2_dropShadow_194_221" result="shape"/>
</filter>
<filter id="filter3_dd_194_221" x="37.6149" y="10.0384" width="16.1589" height="23.8542" filterUnits="userSpaceOnUse" color-interpolation-filters="sRGB">
<feFlood flood-opacity="0" result="BackgroundImageFix"/>
<feColorMatrix in="SourceAlpha" type="matrix" values="0 0 0 0 0 0 0 0 0 0 0 0 0 0 0 0 0 0 127 0" result="hardAlpha"/>
<feOffset dy="0.750683"/>
<feGaussianBlur stdDeviation="2.34588"/>
<feComposite in2="hardAlpha" operator="out"/>
<feColorMatrix type="matrix" values="0 0 0 0 0.0117647 0 0 0 0 0.85098 0 0 0 0 0.905882 0 0 0 1 0"/>
<feBlend mode="normal" in2="BackgroundImageFix" result="effect1_dropShadow_194_221"/>
<feColorMatrix in="SourceAlpha" type="matrix" values="0 0 0 0 0 0 0 0 0 0 0 0 0 0 0 0 0 0 127 0" result="hardAlpha"/>
<feOffset dy="0.750683"/>
<feGaussianBlur stdDeviation="2.34588"/>
<feComposite in2="hardAlpha" operator="out"/>
<feColorMatrix type="matrix" values="0 0 0 0 0.0117647 0 0 0 0 0.85098 0 0 0 0 0.905882 0 0 0 1 0"/>
<feBlend mode="normal" in2="effect1_dropShadow_194_221" result="effect2_dropShadow_194_221"/>
<feBlend mode="normal" in="SourceGraphic" in2="effect2_dropShadow_194_221" result="shape"/>
</filter>
<filter id="filter4_dd_194_221" x="27.2731" y="23.5306" width="27.4402" height="32.3118" filterUnits="userSpaceOnUse" color-interpolation-filters="sRGB">
<feFlood flood-opacity="0" result="BackgroundImageFix"/>
<feColorMatrix in="SourceAlpha" type="matrix" values="0 0 0 0 0 0 0 0 0 0 0 0 0 0 0 0 0 0 127 0" result="hardAlpha"/>
<feOffset dy="0.750683"/>
<feGaussianBlur stdDeviation="2.34588"/>
<feComposite in2="hardAlpha" operator="out"/>
<feColorMatrix type="matrix" values="0 0 0 0 0.0117647 0 0 0 0 0.85098 0 0 0 0 0.905882 0 0 0 1 0"/>
<feBlend mode="normal" in2="BackgroundImageFix" result="effect1_dropShadow_194_221"/>
<feColorMatrix in="SourceAlpha" type="matrix" values="0 0 0 0 0 0 0 0 0 0 0 0 0 0 0 0 0 0 127 0" result="hardAlpha"/>
<feOffset dy="0.750683"/>
<feGaussianBlur stdDeviation="2.34588"/>
<feComposite in2="hardAlpha" operator="out"/>
<feColorMatrix type="matrix" values="0 0 0 0 0.0117647 0 0 0 0 0.85098 0 0 0 0 0.905882 0 0 0 1 0"/>
<feBlend mode="normal" in2="effect1_dropShadow_194_221" result="effect2_dropShadow_194_221"/>
<feBlend mode="normal" in="SourceGraphic" in2="effect2_dropShadow_194_221" result="shape"/>
</filter>
<filter id="filter5_dd_194_221" x="2.79651" y="29.7454" width="31.9968" height="25.8049" filterUnits="userSpaceOnUse" color-interpolation-filters="sRGB">
<feFlood flood-opacity="0" result="BackgroundImageFix"/>
<feColorMatrix in="SourceAlpha" type="matrix" values="0 0 0 0 0 0 0 0 0 0 0 0 0 0 0 0 0 0 127 0" result="hardAlpha"/>
<feOffset dy="0.750683"/>
<feGaussianBlur stdDeviation="2.34588"/>
<feComposite in2="hardAlpha" operator="out"/>
<feColorMatrix type="matrix" values="0 0 0 0 0.980392 0 0 0 0 1 0 0 0 0 0 0 0 0 1 0"/>
<feBlend mode="normal" in2="BackgroundImageFix" result="effect1_dropShadow_194_221"/>
<feColorMatrix in="SourceAlpha" type="matrix" values="0 0 0 0 0 0 0 0 0 0 0 0 0 0 0 0 0 0 127 0" result="hardAlpha"/>
<feOffset dy="0.750683"/>
<feGaussianBlur stdDeviation="2.34588"/>
<feComposite in2="hardAlpha" operator="out"/>
<feColorMatrix type="matrix" values="0 0 0 0 0.980392 0 0 0 0 1 0 0 0 0 0 0 0 0 1 0"/>
<feBlend mode="normal" in2="effect1_dropShadow_194_221" result="effect2_dropShadow_194_221"/>
<feBlend mode="normal" in="SourceGraphic" in2="effect2_dropShadow_194_221" result="shape"/>
</filter>
<filter id="filter6_dd_194_221" x="9.64612" y="3.67366" width="37.1062" height="15.0598" filterUnits="userSpaceOnUse" color-interpolation-filters="sRGB">
<feFlood flood-opacity="0" result="BackgroundImageFix"/>
<feColorMatrix in="SourceAlpha" type="matrix" values="0 0 0 0 0 0 0 0 0 0 0 0 0 0 0 0 0 0 127 0" result="hardAlpha"/>
<feOffset dy="0.750683"/>
<feGaussianBlur stdDeviation="2.34588"/>
<feComposite in2="hardAlpha" operator="out"/>
<feColorMatrix type="matrix" values="0 0 0 0 0.980392 0 0 0 0 1 0 0 0 0 0 0 0 0 1 0"/>
<feBlend mode="normal" in2="BackgroundImageFix" result="effect1_dropShadow_194_221"/>
<feColorMatrix in="SourceAlpha" type="matrix" values="0 0 0 0 0 0 0 0 0 0 0 0 0 0 0 0 0 0 127 0" result="hardAlpha"/>
<feOffset dy="0.750683"/>
<feGaussianBlur stdDeviation="2.34588"/>
<feComposite in2="hardAlpha" operator="out"/>
<feColorMatrix type="matrix" values="0 0 0 0 0.980392 0 0 0 0 1 0 0 0 0 0 0 0 0 1 0"/>
<feBlend mode="normal" in2="effect1_dropShadow_194_221" result="effect2_dropShadow_194_221"/>
<feBlend mode="normal" in="SourceGraphic" in2="effect2_dropShadow_194_221" result="shape"/>
</filter>
<filter id="filter7_d_194_221" x="4.34339" y="6.21028" width="23.991" height="47.0764" filterUnits="userSpaceOnUse" color-interpolation-filters="sRGB">
<feFlood flood-opacity="0" result="BackgroundImageFix"/>
<feColorMatrix in="SourceAlpha" type="matrix" values="0 0 0 0 0 0 0 0 0 0 0 0 0 0 0 0 0 0 127 0" result="hardAlpha"/>
<feOffset dy="0.750683"/>
<feGaussianBlur stdDeviation="2.34588"/>
<feComposite in2="hardAlpha" operator="out"/>
<feColorMatrix type="matrix" values="0 0 0 0 0.956863 0 0 0 0 0.290196 0 0 0 0 0.290196 0 0 0 1 0"/>
<feBlend mode="normal" in2="BackgroundImageFix" result="effect1_dropShadow_194_221"/>
<feBlend mode="normal" in="SourceGraphic" in2="effect1_dropShadow_194_221" result="shape"/>
</filter>
<filter id="filter8_d_194_221" x="28.2047" y="6.39241" width="23.991" height="47.0764" filterUnits="userSpaceOnUse" color-interpolation-filters="sRGB">
<feFlood flood-opacity="0" result="BackgroundImageFix"/>
<feColorMatrix in="SourceAlpha" type="matrix" values="0 0 0 0 0 0 0 0 0 0 0 0 0 0 0 0 0 0 127 0" result="hardAlpha"/>
<feOffset dy="0.750683"/>
<feGaussianBlur stdDeviation="2.34588"/>
<feComposite in2="hardAlpha" operator="out"/>
<feColorMatrix type="matrix" values="0 0 0 0 0.956863 0 0 0 0 0.290196 0 0 0 0 0.290196 0 0 0 1 0"/>
<feBlend mode="normal" in2="BackgroundImageFix" result="effect1_dropShadow_194_221"/>
<feBlend mode="normal" in="SourceGraphic" in2="effect1_dropShadow_194_221" result="shape"/>
</filter>
<filter id="filter9_dd_194_221" x="7.74182" y="9.47688" width="25.0789" height="25.0793" filterUnits="userSpaceOnUse" color-interpolation-filters="sRGB">
<feFlood flood-opacity="0" result="BackgroundImageFix"/>
<feColorMatrix in="SourceAlpha" type="matrix" values="0 0 0 0 0 0 0 0 0 0 0 0 0 0 0 0 0 0 127 0" result="hardAlpha"/>
<feOffset dy="0.750683"/>
<feGaussianBlur stdDeviation="2.34588"/>
<feComposite in2="hardAlpha" operator="out"/>
<feColorMatrix type="matrix" values="0 0 0 0 0.529412 0 0 0 0 0.533333 0 0 0 0 0.827451 0 0 0 1 0"/>
<feBlend mode="normal" in2="BackgroundImageFix" result="effect1_dropShadow_194_221"/>
<feColorMatrix in="SourceAlpha" type="matrix" values="0 0 0 0 0 0 0 0 0 0 0 0 0 0 0 0 0 0 127 0" result="hardAlpha"/>
<feOffset dy="0.750683"/>
<feGaussianBlur stdDeviation="2.34588"/>
<feComposite in2="hardAlpha" operator="out"/>
<feColorMatrix type="matrix" values="0 0 0 0 0.529412 0 0 0 0 0.533333 0 0 0 0 0.827451 0 0 0 1 0"/>
<feBlend mode="normal" in2="effect1_dropShadow_194_221" result="effect2_dropShadow_194_221"/>
<feBlend mode="normal" in="SourceGraphic" in2="effect2_dropShadow_194_221" result="shape"/>
</filter>
<filter id="filter10_d_194_221" x="23.9078" y="24.9403" width="24.8894" height="25.2683" filterUnits="userSpaceOnUse" color-interpolation-filters="sRGB">
<feFlood flood-opacity="0" result="BackgroundImageFix"/>
<feColorMatrix in="SourceAlpha" type="matrix" values="0 0 0 0 0 0 0 0 0 0 0 0 0 0 0 0 0 0 127 0" result="hardAlpha"/>
<feOffset dy="0.750683"/>
<feGaussianBlur stdDeviation="2.34588"/>
<feComposite in2="hardAlpha" operator="out"/>
<feColorMatrix type="matrix" values="0 0 0 0 0.529412 0 0 0 0 0.533333 0 0 0 0 0.827451 0 0 0 1 0"/>
<feBlend mode="normal" in2="BackgroundImageFix" result="effect1_dropShadow_194_221"/>
<feBlend mode="normal" in="SourceGraphic" in2="effect1_dropShadow_194_221" result="shape"/>
</filter>
<filter id="filter11_d_194_221" x="13.375" y="15.275" width="29.25" height="29.25" filterUnits="userSpaceOnUse" color-interpolation-filters="sRGB">
<feFlood flood-opacity="0" result="BackgroundImageFix"/>
<feColorMatrix in="SourceAlpha" type="matrix" values="0 0 0 0 0 0 0 0 0 0 0 0 0 0 0 0 0 0 127 0" result="hardAlpha"/>
<feOffset dy="0.9"/>
<feGaussianBlur stdDeviation="2.8125"/>
<feComposite in2="hardAlpha" operator="out"/>
<feColorMatrix type="matrix" values="0 0 0 0 1 0 0 0 0 1 0 0 0 0 1 0 0 0 1 0"/>
<feBlend mode="normal" in2="BackgroundImageFix" result="effect1_dropShadow_194_221"/>
<feBlend mode="normal" in="SourceGraphic" in2="effect1_dropShadow_194_221" result="shape"/>
</filter>
</defs>
</svg>
