<svg width="59" height="58" viewBox="0 0 59 58" fill="none" xmlns="http://www.w3.org/2000/svg">
<g filter="url(#filter0_dd_188_110)">
<path d="M18.1602 9.32693C35.4364 0.897303 50.9519 14.0635 50.9519 27.7267" stroke="#8788D3" stroke-width="2.30453"/>
</g>
<circle cx="29.0903" cy="28.0908" r="16.0689" stroke="#8788D3" stroke-width="1.38272"/>
<g filter="url(#filter1_d_188_110)">
<path d="M15.93 19.9258C16.8877 18.207 18.7031 16.6136 18.7031 16.6136" stroke="#8788D3" stroke-width="2.07408"/>
</g>
<g filter="url(#filter2_d_188_110)">
<path d="M19.8001 15.64C21.2966 14.3624 23.5532 13.5012 23.5532 13.5012" stroke="#8788D3" stroke-width="2.07408"/>
</g>
<g filter="url(#filter3_d_188_110)">
<path d="M24.7317 13.1633C26.6102 12.578 29.0237 12.6747 29.0237 12.6747" stroke="#8788D3" stroke-width="2.07408"/>
</g>
<g filter="url(#filter4_d_188_110)">
<path d="M30.3459 12.7012C32.3129 12.7481 34.5684 13.6124 34.5684 13.6124" stroke="#8788D3" stroke-width="2.07408"/>
</g>
<g filter="url(#filter5_d_188_110)">
<path d="M40.5243 17.5248C41.9102 18.9215 42.9377 21.1075 42.9377 21.1075" stroke="#8788D3" stroke-width="2.07408"/>
</g>
<g filter="url(#filter6_d_188_110)">
<path d="M40.2658 38.5289C39.0045 40.0391 36.9239 41.2661 36.9239 41.2661" stroke="#8788D3" stroke-width="2.07408"/>
</g>
<g filter="url(#filter7_d_188_110)">
<path d="M30.3101 43.2429C28.3659 43.5453 25.993 43.0945 25.993 43.0945" stroke="#8788D3" stroke-width="2.07408"/>
</g>
<g filter="url(#filter8_d_188_110)">
<path d="M24.7316 42.746C22.8448 42.1879 20.8926 40.7656 20.8926 40.7656" stroke="#8788D3" stroke-width="2.07408"/>
</g>
<g filter="url(#filter9_dd_188_110)">
<path d="M27.9969 29.516C28.3632 29.8644 28.3632 30.4361 27.9969 30.7845C27.6485 31.1329 27.0768 31.1329 26.7284 30.7845C25.8918 29.9465 25.4218 28.8108 25.4218 27.6267C25.4218 26.4426 25.8918 25.3068 26.7284 24.4689L29.8907 21.3066C30.7286 20.4699 31.8644 20 33.0485 20C34.2326 20 35.3684 20.4699 36.2063 21.3066C37.043 22.1446 37.5129 23.2803 37.5129 24.4644C37.5129 25.6486 37.043 26.7843 36.2063 27.6222L34.8753 28.9532C34.8842 28.2207 34.7681 27.4882 34.518 26.7915L34.9378 26.3627C35.1882 26.1149 35.3871 25.82 35.5227 25.495C35.6584 25.1699 35.7283 24.8211 35.7283 24.4689C35.7283 24.1166 35.6584 23.7679 35.5227 23.4428C35.3871 23.1177 35.1882 22.8228 34.9378 22.5751C34.6901 22.3247 34.3952 22.1259 34.0701 21.9902C33.745 21.8545 33.3963 21.7846 33.044 21.7846C32.6918 21.7846 32.343 21.8545 32.018 21.9902C31.6929 22.1259 31.398 22.3247 31.1502 22.5751L27.9969 25.7284C27.7465 25.9762 27.5477 26.2711 27.412 26.5962C27.2763 26.9212 27.2065 27.27 27.2065 27.6222C27.2065 27.9745 27.2763 28.3232 27.412 28.6483C27.5477 28.9734 27.7465 29.2683 27.9969 29.516ZM30.516 25.7284C30.8644 25.38 31.4361 25.38 31.7845 25.7284C32.6212 26.5664 33.0911 27.7021 33.0911 28.8862C33.0911 30.0704 32.6212 31.2061 31.7845 32.044L28.6222 35.2063C27.7843 36.043 26.6486 36.5129 25.4644 36.5129C24.2803 36.5129 23.1446 36.043 22.3066 35.2063C21.4699 34.3684 21 33.2326 21 32.0485C21 30.8644 21.4699 29.7286 22.3066 28.8907L23.6376 27.5597C23.6287 28.2922 23.7448 29.0247 23.9949 29.7304L23.5751 30.1502C23.3247 30.398 23.1259 30.6929 22.9902 31.018C22.8545 31.343 22.7846 31.6918 22.7846 32.044C22.7846 32.3963 22.8545 32.745 22.9902 33.0701C23.1259 33.3952 23.3247 33.6901 23.5751 33.9378C23.8228 34.1882 24.1177 34.3871 24.4428 34.5227C24.7679 34.6584 25.1166 34.7283 25.4689 34.7283C25.8211 34.7283 26.1699 34.6584 26.495 34.5227C26.82 34.3871 27.1149 34.1882 27.3627 33.9378L30.516 30.7845C30.7664 30.5368 30.9652 30.2418 31.1009 29.9168C31.2366 29.5917 31.3065 29.2429 31.3065 28.8907C31.3065 28.5385 31.2366 28.1897 31.1009 27.8646C30.9652 27.5396 30.7664 27.2446 30.516 26.9969C30.4292 26.9156 30.3601 26.8174 30.3128 26.7083C30.2655 26.5992 30.2411 26.4816 30.2411 26.3627C30.2411 26.2438 30.2655 26.1261 30.3128 26.0171C30.3601 25.908 30.4292 25.8097 30.516 25.7284Z" fill="#8788D3"/>
</g>
<circle cx="28.9991" cy="28" r="17.8478" transform="rotate(29.9131 28.9991 28)" stroke="url(#paint0_linear_188_110)" stroke-width="0.921813"/>
<g filter="url(#filter10_dd_188_110)">
<path d="M10.9516 18.2427C-1.22307 44.4761 31.7512 59.3234 45.3829 40.5593" stroke="#8788D3" stroke-width="2.99589"/>
</g>
<defs>
<filter id="filter0_dd_188_110" x="11.4043" y="0.26709" width="46.9492" height="34.7095" filterUnits="userSpaceOnUse" color-interpolation-filters="sRGB">
<feFlood flood-opacity="0" result="BackgroundImageFix"/>
<feColorMatrix in="SourceAlpha" type="matrix" values="0 0 0 0 0 0 0 0 0 0 0 0 0 0 0 0 0 0 127 0" result="hardAlpha"/>
<feOffset dy="1"/>
<feGaussianBlur stdDeviation="3.125"/>
<feComposite in2="hardAlpha" operator="out"/>
<feColorMatrix type="matrix" values="0 0 0 0 0.529412 0 0 0 0 0.533333 0 0 0 0 0.827451 0 0 0 1 0"/>
<feBlend mode="normal" in2="BackgroundImageFix" result="effect1_dropShadow_188_110"/>
<feColorMatrix in="SourceAlpha" type="matrix" values="0 0 0 0 0 0 0 0 0 0 0 0 0 0 0 0 0 0 127 0" result="hardAlpha"/>
<feOffset dy="1"/>
<feGaussianBlur stdDeviation="3.125"/>
<feComposite in2="hardAlpha" operator="out"/>
<feColorMatrix type="matrix" values="0 0 0 0 0.529412 0 0 0 0 0.533333 0 0 0 0 0.827451 0 0 0 1 0"/>
<feBlend mode="normal" in2="effect1_dropShadow_188_110" result="effect2_dropShadow_188_110"/>
<feBlend mode="normal" in="SourceGraphic" in2="effect2_dropShadow_188_110" result="shape"/>
</filter>
<filter id="filter1_d_188_110" x="8.77344" y="10.5845" width="16.8633" height="17.0962" filterUnits="userSpaceOnUse" color-interpolation-filters="sRGB">
<feFlood flood-opacity="0" result="BackgroundImageFix"/>
<feColorMatrix in="SourceAlpha" type="matrix" values="0 0 0 0 0 0 0 0 0 0 0 0 0 0 0 0 0 0 127 0" result="hardAlpha"/>
<feOffset dy="1"/>
<feGaussianBlur stdDeviation="3.125"/>
<feComposite in2="hardAlpha" operator="out"/>
<feColorMatrix type="matrix" values="0 0 0 0 0.529412 0 0 0 0 0.533333 0 0 0 0 0.827451 0 0 0 1 0"/>
<feBlend mode="normal" in2="BackgroundImageFix" result="effect1_dropShadow_188_110"/>
<feBlend mode="normal" in="SourceGraphic" in2="effect1_dropShadow_188_110" result="shape"/>
</filter>
<filter id="filter2_d_188_110" x="12.877" y="7.28223" width="17.2969" height="16.3965" filterUnits="userSpaceOnUse" color-interpolation-filters="sRGB">
<feFlood flood-opacity="0" result="BackgroundImageFix"/>
<feColorMatrix in="SourceAlpha" type="matrix" values="0 0 0 0 0 0 0 0 0 0 0 0 0 0 0 0 0 0 127 0" result="hardAlpha"/>
<feOffset dy="1"/>
<feGaussianBlur stdDeviation="3.125"/>
<feComposite in2="hardAlpha" operator="out"/>
<feColorMatrix type="matrix" values="0 0 0 0 0.529412 0 0 0 0 0.533333 0 0 0 0 0.827451 0 0 0 1 0"/>
<feBlend mode="normal" in2="BackgroundImageFix" result="effect1_dropShadow_188_110"/>
<feBlend mode="normal" in="SourceGraphic" in2="effect1_dropShadow_188_110" result="shape"/>
</filter>
<filter id="filter3_d_188_110" x="18.1738" y="6.38184" width="17.1406" height="15.0215" filterUnits="userSpaceOnUse" color-interpolation-filters="sRGB">
<feFlood flood-opacity="0" result="BackgroundImageFix"/>
<feColorMatrix in="SourceAlpha" type="matrix" values="0 0 0 0 0 0 0 0 0 0 0 0 0 0 0 0 0 0 127 0" result="hardAlpha"/>
<feOffset dy="1"/>
<feGaussianBlur stdDeviation="3.125"/>
<feComposite in2="hardAlpha" operator="out"/>
<feColorMatrix type="matrix" values="0 0 0 0 0.529412 0 0 0 0 0.533333 0 0 0 0 0.827451 0 0 0 1 0"/>
<feBlend mode="normal" in2="BackgroundImageFix" result="effect1_dropShadow_188_110"/>
<feBlend mode="normal" in="SourceGraphic" in2="effect1_dropShadow_188_110" result="shape"/>
</filter>
<filter id="filter4_d_188_110" x="24.0703" y="6.41455" width="17.1191" height="15.4165" filterUnits="userSpaceOnUse" color-interpolation-filters="sRGB">
<feFlood flood-opacity="0" result="BackgroundImageFix"/>
<feColorMatrix in="SourceAlpha" type="matrix" values="0 0 0 0 0 0 0 0 0 0 0 0 0 0 0 0 0 0 127 0" result="hardAlpha"/>
<feOffset dy="1"/>
<feGaussianBlur stdDeviation="3.125"/>
<feComposite in2="hardAlpha" operator="out"/>
<feColorMatrix type="matrix" values="0 0 0 0 0.529412 0 0 0 0 0.533333 0 0 0 0 0.827451 0 0 0 1 0"/>
<feBlend mode="normal" in2="BackgroundImageFix" result="effect1_dropShadow_188_110"/>
<feBlend mode="normal" in="SourceGraphic" in2="effect1_dropShadow_188_110" result="shape"/>
</filter>
<filter id="filter5_d_188_110" x="33.5391" y="11.5444" width="16.5879" height="17.2549" filterUnits="userSpaceOnUse" color-interpolation-filters="sRGB">
<feFlood flood-opacity="0" result="BackgroundImageFix"/>
<feColorMatrix in="SourceAlpha" type="matrix" values="0 0 0 0 0 0 0 0 0 0 0 0 0 0 0 0 0 0 127 0" result="hardAlpha"/>
<feOffset dy="1"/>
<feGaussianBlur stdDeviation="3.125"/>
<feComposite in2="hardAlpha" operator="out"/>
<feColorMatrix type="matrix" values="0 0 0 0 0.529412 0 0 0 0 0.533333 0 0 0 0 0.827451 0 0 0 1 0"/>
<feBlend mode="normal" in2="BackgroundImageFix" result="effect1_dropShadow_188_110"/>
<feBlend mode="normal" in="SourceGraphic" in2="effect1_dropShadow_188_110" result="shape"/>
</filter>
<filter id="filter6_d_188_110" x="30.1465" y="32.6143" width="17.166" height="16.7949" filterUnits="userSpaceOnUse" color-interpolation-filters="sRGB">
<feFlood flood-opacity="0" result="BackgroundImageFix"/>
<feColorMatrix in="SourceAlpha" type="matrix" values="0 0 0 0 0 0 0 0 0 0 0 0 0 0 0 0 0 0 127 0" result="hardAlpha"/>
<feOffset dy="1"/>
<feGaussianBlur stdDeviation="3.125"/>
<feComposite in2="hardAlpha" operator="out"/>
<feColorMatrix type="matrix" values="0 0 0 0 0.529412 0 0 0 0 0.533333 0 0 0 0 0.827451 0 0 0 1 0"/>
<feBlend mode="normal" in2="BackgroundImageFix" result="effect1_dropShadow_188_110"/>
<feBlend mode="normal" in="SourceGraphic" in2="effect1_dropShadow_188_110" result="shape"/>
</filter>
<filter id="filter7_d_188_110" x="19.5488" y="36.8257" width="17.1699" height="14.8086" filterUnits="userSpaceOnUse" color-interpolation-filters="sRGB">
<feFlood flood-opacity="0" result="BackgroundImageFix"/>
<feColorMatrix in="SourceAlpha" type="matrix" values="0 0 0 0 0 0 0 0 0 0 0 0 0 0 0 0 0 0 127 0" result="hardAlpha"/>
<feOffset dy="1"/>
<feGaussianBlur stdDeviation="3.125"/>
<feComposite in2="hardAlpha" operator="out"/>
<feColorMatrix type="matrix" values="0 0 0 0 0.529412 0 0 0 0 0.533333 0 0 0 0 0.827451 0 0 0 1 0"/>
<feBlend mode="normal" in2="BackgroundImageFix" result="effect1_dropShadow_188_110"/>
<feBlend mode="normal" in="SourceGraphic" in2="effect1_dropShadow_188_110" result="shape"/>
</filter>
<filter id="filter8_d_188_110" x="14.0312" y="34.6768" width="17.2441" height="16.3135" filterUnits="userSpaceOnUse" color-interpolation-filters="sRGB">
<feFlood flood-opacity="0" result="BackgroundImageFix"/>
<feColorMatrix in="SourceAlpha" type="matrix" values="0 0 0 0 0 0 0 0 0 0 0 0 0 0 0 0 0 0 127 0" result="hardAlpha"/>
<feOffset dy="1"/>
<feGaussianBlur stdDeviation="3.125"/>
<feComposite in2="hardAlpha" operator="out"/>
<feColorMatrix type="matrix" values="0 0 0 0 0.529412 0 0 0 0 0.533333 0 0 0 0 0.827451 0 0 0 1 0"/>
<feBlend mode="normal" in2="BackgroundImageFix" result="effect1_dropShadow_188_110"/>
<feBlend mode="normal" in="SourceGraphic" in2="effect1_dropShadow_188_110" result="shape"/>
</filter>
<filter id="filter9_dd_188_110" x="10.6927" y="11.3419" width="37.1282" height="37.1272" filterUnits="userSpaceOnUse" color-interpolation-filters="sRGB">
<feFlood flood-opacity="0" result="BackgroundImageFix"/>
<feColorMatrix in="SourceAlpha" type="matrix" values="0 0 0 0 0 0 0 0 0 0 0 0 0 0 0 0 0 0 127 0" result="hardAlpha"/>
<feOffset dy="1.64916"/>
<feGaussianBlur stdDeviation="5.15363"/>
<feComposite in2="hardAlpha" operator="out"/>
<feColorMatrix type="matrix" values="0 0 0 0 0.529412 0 0 0 0 0.533333 0 0 0 0 0.827451 0 0 0 1 0"/>
<feBlend mode="normal" in2="BackgroundImageFix" result="effect1_dropShadow_188_110"/>
<feColorMatrix in="SourceAlpha" type="matrix" values="0 0 0 0 0 0 0 0 0 0 0 0 0 0 0 0 0 0 127 0" result="hardAlpha"/>
<feOffset dy="1.64916"/>
<feGaussianBlur stdDeviation="5.15363"/>
<feComposite in2="hardAlpha" operator="out"/>
<feColorMatrix type="matrix" values="0 0 0 0 0.529412 0 0 0 0 0.533333 0 0 0 0 0.827451 0 0 0 1 0"/>
<feBlend mode="normal" in2="effect1_dropShadow_188_110" result="effect2_dropShadow_188_110"/>
<feBlend mode="normal" in="SourceGraphic" in2="effect2_dropShadow_188_110" result="shape"/>
</filter>
<filter id="filter10_dd_188_110" x="0.554688" y="12.3623" width="52.291" height="45.3652" filterUnits="userSpaceOnUse" color-interpolation-filters="sRGB">
<feFlood flood-opacity="0" result="BackgroundImageFix"/>
<feColorMatrix in="SourceAlpha" type="matrix" values="0 0 0 0 0 0 0 0 0 0 0 0 0 0 0 0 0 0 127 0" result="hardAlpha"/>
<feOffset dy="1"/>
<feGaussianBlur stdDeviation="0.5"/>
<feComposite in2="hardAlpha" operator="out"/>
<feColorMatrix type="matrix" values="0 0 0 0 0 0 0 0 0 0 0 0 0 0 0 0 0 0 0.25 0"/>
<feBlend mode="normal" in2="BackgroundImageFix" result="effect1_dropShadow_188_110"/>
<feColorMatrix in="SourceAlpha" type="matrix" values="0 0 0 0 0 0 0 0 0 0 0 0 0 0 0 0 0 0 127 0" result="hardAlpha"/>
<feOffset dy="1"/>
<feGaussianBlur stdDeviation="3.125"/>
<feComposite in2="hardAlpha" operator="out"/>
<feColorMatrix type="matrix" values="0 0 0 0 0.529412 0 0 0 0 0.533333 0 0 0 0 0.827451 0 0 0 1 0"/>
<feBlend mode="normal" in2="effect1_dropShadow_188_110" result="effect2_dropShadow_188_110"/>
<feBlend mode="normal" in="SourceGraphic" in2="effect2_dropShadow_188_110" result="shape"/>
</filter>
<linearGradient id="paint0_linear_188_110" x1="28.9991" y1="9.69127" x2="28.9991" y2="46.3087" gradientUnits="userSpaceOnUse">
<stop stop-color="#8788D3"/>
<stop offset="0.458333" stop-color="#8687E6"/>
<stop offset="0.760417" stop-color="#000203" stop-opacity="0.0113637"/>
</linearGradient>
</defs>
</svg>
