<svg width="59" height="58" viewBox="0 0 59 58" fill="none" xmlns="http://www.w3.org/2000/svg">
<g filter="url(#filter0_dd_188_110)">
<path d="M18.1602 9.32693C35.4364 0.897303 50.9519 14.0635 50.9519 27.7267" stroke="#8788D3" stroke-width="2.30453"/>
</g>
<circle cx="29.0903" cy="28.0908" r="16.0689" stroke="#8788D3" stroke-width="1.38272"/>
<g filter="url(#filter1_d_188_110)">
<path d="M15.93 19.9258C16.8877 18.207 18.7031 16.6136 18.7031 16.6136" stroke="#8788D3" stroke-width="2.07408"/>
</g>
<g filter="url(#filter2_d_188_110)">
<path d="M19.8001 15.64C21.2966 14.3624 23.5532 13.5012 23.5532 13.5012" stroke="#8788D3" stroke-width="2.07408"/>
</g>
<g filter="url(#filter3_d_188_110)">
<path d="M24.7317 13.1633C26.6102 12.578 29.0237 12.6747 29.0237 12.6747" stroke="#8788D3" stroke-width="2.07408"/>
</g>
<g filter="url(#filter4_d_188_110)">
<path d="M30.3459 12.7012C32.3129 12.7481 34.5684 13.6124 34.5684 13.6124" stroke="#8788D3" stroke-width="2.07408"/>
</g>
<g filter="url(#filter5_d_188_110)">
<path d="M40.5243 17.5248C41.9102 18.9215 42.9377 21.1075 42.9377 21.1075" stroke="#8788D3" stroke-width="2.07408"/>
</g>
<g filter="url(#filter6_d_188_110)">
<path d="M40.2658 38.5289C39.0045 40.0391 36.9239 41.2661 36.9239 41.2661" stroke="#8788D3" stroke-width="2.07408"/>
</g>
<g filter="url(#filter7_d_188_110)">
<path d="M30.3101 43.2429C28.3659 43.5453 25.993 43.0945 25.993 43.0945" stroke="#8788D3" stroke-width="2.07408"/>
</g>
<g filter="url(#filter8_d_188_110)">
<path d="M24.7316 42.746C22.8448 42.1879 20.8926 40.7656 20.8926 40.7656" stroke="#8788D3" stroke-width="2.07408"/>
</g>
<g filter="url(#filter9_dd_188_110)">
<path d="M28.7427 29.2702C28.9648 29.4815 28.9648 29.8281 28.7427 30.0394C28.5315 30.2506 28.1848 30.2506 27.9735 30.0394C27.4662 29.5313 27.1813 28.8426 27.1813 28.1246C27.1813 27.4066 27.4662 26.7179 27.9735 26.2098L29.891 24.2923C30.3991 23.785 31.0878 23.5 31.8058 23.5C32.5239 23.5 33.2125 23.785 33.7206 24.2923C34.228 24.8004 34.5129 25.4891 34.5129 26.2071C34.5129 26.9251 34.228 27.6138 33.7206 28.1219L32.9135 28.929C32.919 28.4848 32.8485 28.0406 32.6969 27.6181L32.9515 27.3581C33.1033 27.2079 33.2239 27.0291 33.3061 26.832C33.3884 26.6349 33.4308 26.4234 33.4308 26.2098C33.4308 25.9962 33.3884 25.7847 33.3061 25.5876C33.2239 25.3905 33.1033 25.2117 32.9515 25.0615C32.8012 24.9096 32.6224 24.7891 32.4253 24.7068C32.2282 24.6245 32.0167 24.5821 31.8031 24.5821C31.5895 24.5821 31.3781 24.6245 31.1809 24.7068C30.9838 24.7891 30.805 24.9096 30.6548 25.0615L28.7427 26.9735C28.5909 27.1238 28.4703 27.3026 28.388 27.4997C28.3058 27.6968 28.2634 27.9083 28.2634 28.1219C28.2634 28.3355 28.3058 28.5469 28.388 28.744C28.4703 28.9412 28.5909 29.12 28.7427 29.2702ZM30.2702 26.9735C30.4815 26.7623 30.8281 26.7623 31.0394 26.9735C31.5467 27.4816 31.8317 28.1703 31.8317 28.8883C31.8317 29.6064 31.5467 30.295 31.0394 30.8031L29.1219 32.7206C28.6138 33.228 27.9251 33.5129 27.2071 33.5129C26.4891 33.5129 25.8004 33.228 25.2923 32.7206C24.785 32.2125 24.5 31.5239 24.5 30.8058C24.5 30.0878 24.785 29.3991 25.2923 28.891L26.0994 28.084C26.094 28.5281 26.1644 28.9723 26.316 29.4002L26.0615 29.6548C25.9096 29.805 25.7891 29.9838 25.7068 30.1809C25.6245 30.3781 25.5821 30.5895 25.5821 30.8031C25.5821 31.0167 25.6245 31.2282 25.7068 31.4253C25.7891 31.6224 25.9096 31.8012 26.0615 31.9515C26.2117 32.1033 26.3905 32.2239 26.5876 32.3061C26.7847 32.3884 26.9962 32.4308 27.2098 32.4308C27.4234 32.4308 27.6349 32.3884 27.832 32.3061C28.0291 32.2239 28.2079 32.1033 28.3581 31.9515L30.2702 30.0394C30.4221 29.8892 30.5426 29.7103 30.6249 29.5132C30.7072 29.3161 30.7495 29.1046 30.7495 28.891C30.7495 28.6774 30.7072 28.466 30.6249 28.2689C30.5426 28.0718 30.4221 27.8929 30.2702 27.7427C30.2176 27.6934 30.1757 27.6338 30.147 27.5677C30.1183 27.5015 30.1035 27.4302 30.1035 27.3581C30.1035 27.286 30.1183 27.2147 30.147 27.1486C30.1757 27.0824 30.2176 27.0228 30.2702 26.9735Z" fill="#8788D3"/>
</g>
<circle cx="28.9991" cy="28" r="17.8478" transform="rotate(29.9131 28.9991 28)" stroke="url(#paint0_linear_188_110)" stroke-width="0.921813"/>
<g filter="url(#filter10_dd_188_110)">
<path d="M10.9516 18.2427C-1.22307 44.4761 31.7512 59.3234 45.3829 40.5593" stroke="#8788D3" stroke-width="2.99589"/>
</g>
<defs>
<filter id="filter0_dd_188_110" x="11.4043" y="0.26709" width="46.9492" height="34.7095" filterUnits="userSpaceOnUse" color-interpolation-filters="sRGB">
<feFlood flood-opacity="0" result="BackgroundImageFix"/>
<feColorMatrix in="SourceAlpha" type="matrix" values="0 0 0 0 0 0 0 0 0 0 0 0 0 0 0 0 0 0 127 0" result="hardAlpha"/>
<feOffset dy="1"/>
<feGaussianBlur stdDeviation="3.125"/>
<feComposite in2="hardAlpha" operator="out"/>
<feColorMatrix type="matrix" values="0 0 0 0 0.529412 0 0 0 0 0.533333 0 0 0 0 0.827451 0 0 0 1 0"/>
<feBlend mode="normal" in2="BackgroundImageFix" result="effect1_dropShadow_188_110"/>
<feColorMatrix in="SourceAlpha" type="matrix" values="0 0 0 0 0 0 0 0 0 0 0 0 0 0 0 0 0 0 127 0" result="hardAlpha"/>
<feOffset dy="1"/>
<feGaussianBlur stdDeviation="3.125"/>
<feComposite in2="hardAlpha" operator="out"/>
<feColorMatrix type="matrix" values="0 0 0 0 0.529412 0 0 0 0 0.533333 0 0 0 0 0.827451 0 0 0 1 0"/>
<feBlend mode="normal" in2="effect1_dropShadow_188_110" result="effect2_dropShadow_188_110"/>
<feBlend mode="normal" in="SourceGraphic" in2="effect2_dropShadow_188_110" result="shape"/>
</filter>
<filter id="filter1_d_188_110" x="8.77344" y="10.5845" width="16.8633" height="17.0962" filterUnits="userSpaceOnUse" color-interpolation-filters="sRGB">
<feFlood flood-opacity="0" result="BackgroundImageFix"/>
<feColorMatrix in="SourceAlpha" type="matrix" values="0 0 0 0 0 0 0 0 0 0 0 0 0 0 0 0 0 0 127 0" result="hardAlpha"/>
<feOffset dy="1"/>
<feGaussianBlur stdDeviation="3.125"/>
<feComposite in2="hardAlpha" operator="out"/>
<feColorMatrix type="matrix" values="0 0 0 0 0.529412 0 0 0 0 0.533333 0 0 0 0 0.827451 0 0 0 1 0"/>
<feBlend mode="normal" in2="BackgroundImageFix" result="effect1_dropShadow_188_110"/>
<feBlend mode="normal" in="SourceGraphic" in2="effect1_dropShadow_188_110" result="shape"/>
</filter>
<filter id="filter2_d_188_110" x="12.877" y="7.28223" width="17.2969" height="16.3965" filterUnits="userSpaceOnUse" color-interpolation-filters="sRGB">
<feFlood flood-opacity="0" result="BackgroundImageFix"/>
<feColorMatrix in="SourceAlpha" type="matrix" values="0 0 0 0 0 0 0 0 0 0 0 0 0 0 0 0 0 0 127 0" result="hardAlpha"/>
<feOffset dy="1"/>
<feGaussianBlur stdDeviation="3.125"/>
<feComposite in2="hardAlpha" operator="out"/>
<feColorMatrix type="matrix" values="0 0 0 0 0.529412 0 0 0 0 0.533333 0 0 0 0 0.827451 0 0 0 1 0"/>
<feBlend mode="normal" in2="BackgroundImageFix" result="effect1_dropShadow_188_110"/>
<feBlend mode="normal" in="SourceGraphic" in2="effect1_dropShadow_188_110" result="shape"/>
</filter>
<filter id="filter3_d_188_110" x="18.1738" y="6.38184" width="17.1406" height="15.0215" filterUnits="userSpaceOnUse" color-interpolation-filters="sRGB">
<feFlood flood-opacity="0" result="BackgroundImageFix"/>
<feColorMatrix in="SourceAlpha" type="matrix" values="0 0 0 0 0 0 0 0 0 0 0 0 0 0 0 0 0 0 127 0" result="hardAlpha"/>
<feOffset dy="1"/>
<feGaussianBlur stdDeviation="3.125"/>
<feComposite in2="hardAlpha" operator="out"/>
<feColorMatrix type="matrix" values="0 0 0 0 0.529412 0 0 0 0 0.533333 0 0 0 0 0.827451 0 0 0 1 0"/>
<feBlend mode="normal" in2="BackgroundImageFix" result="effect1_dropShadow_188_110"/>
<feBlend mode="normal" in="SourceGraphic" in2="effect1_dropShadow_188_110" result="shape"/>
</filter>
<filter id="filter4_d_188_110" x="24.0703" y="6.41455" width="17.1191" height="15.4165" filterUnits="userSpaceOnUse" color-interpolation-filters="sRGB">
<feFlood flood-opacity="0" result="BackgroundImageFix"/>
<feColorMatrix in="SourceAlpha" type="matrix" values="0 0 0 0 0 0 0 0 0 0 0 0 0 0 0 0 0 0 127 0" result="hardAlpha"/>
<feOffset dy="1"/>
<feGaussianBlur stdDeviation="3.125"/>
<feComposite in2="hardAlpha" operator="out"/>
<feColorMatrix type="matrix" values="0 0 0 0 0.529412 0 0 0 0 0.533333 0 0 0 0 0.827451 0 0 0 1 0"/>
<feBlend mode="normal" in2="BackgroundImageFix" result="effect1_dropShadow_188_110"/>
<feBlend mode="normal" in="SourceGraphic" in2="effect1_dropShadow_188_110" result="shape"/>
</filter>
<filter id="filter5_d_188_110" x="33.5391" y="11.5444" width="16.5879" height="17.2549" filterUnits="userSpaceOnUse" color-interpolation-filters="sRGB">
<feFlood flood-opacity="0" result="BackgroundImageFix"/>
<feColorMatrix in="SourceAlpha" type="matrix" values="0 0 0 0 0 0 0 0 0 0 0 0 0 0 0 0 0 0 127 0" result="hardAlpha"/>
<feOffset dy="1"/>
<feGaussianBlur stdDeviation="3.125"/>
<feComposite in2="hardAlpha" operator="out"/>
<feColorMatrix type="matrix" values="0 0 0 0 0.529412 0 0 0 0 0.533333 0 0 0 0 0.827451 0 0 0 1 0"/>
<feBlend mode="normal" in2="BackgroundImageFix" result="effect1_dropShadow_188_110"/>
<feBlend mode="normal" in="SourceGraphic" in2="effect1_dropShadow_188_110" result="shape"/>
</filter>
<filter id="filter6_d_188_110" x="30.1465" y="32.6143" width="17.166" height="16.7949" filterUnits="userSpaceOnUse" color-interpolation-filters="sRGB">
<feFlood flood-opacity="0" result="BackgroundImageFix"/>
<feColorMatrix in="SourceAlpha" type="matrix" values="0 0 0 0 0 0 0 0 0 0 0 0 0 0 0 0 0 0 127 0" result="hardAlpha"/>
<feOffset dy="1"/>
<feGaussianBlur stdDeviation="3.125"/>
<feComposite in2="hardAlpha" operator="out"/>
<feColorMatrix type="matrix" values="0 0 0 0 0.529412 0 0 0 0 0.533333 0 0 0 0 0.827451 0 0 0 1 0"/>
<feBlend mode="normal" in2="BackgroundImageFix" result="effect1_dropShadow_188_110"/>
<feBlend mode="normal" in="SourceGraphic" in2="effect1_dropShadow_188_110" result="shape"/>
</filter>
<filter id="filter7_d_188_110" x="19.5488" y="36.8257" width="17.1699" height="14.8086" filterUnits="userSpaceOnUse" color-interpolation-filters="sRGB">
<feFlood flood-opacity="0" result="BackgroundImageFix"/>
<feColorMatrix in="SourceAlpha" type="matrix" values="0 0 0 0 0 0 0 0 0 0 0 0 0 0 0 0 0 0 127 0" result="hardAlpha"/>
<feOffset dy="1"/>
<feGaussianBlur stdDeviation="3.125"/>
<feComposite in2="hardAlpha" operator="out"/>
<feColorMatrix type="matrix" values="0 0 0 0 0.529412 0 0 0 0 0.533333 0 0 0 0 0.827451 0 0 0 1 0"/>
<feBlend mode="normal" in2="BackgroundImageFix" result="effect1_dropShadow_188_110"/>
<feBlend mode="normal" in="SourceGraphic" in2="effect1_dropShadow_188_110" result="shape"/>
</filter>
<filter id="filter8_d_188_110" x="14.0312" y="34.6768" width="17.2441" height="16.3135" filterUnits="userSpaceOnUse" color-interpolation-filters="sRGB">
<feFlood flood-opacity="0" result="BackgroundImageFix"/>
<feColorMatrix in="SourceAlpha" type="matrix" values="0 0 0 0 0 0 0 0 0 0 0 0 0 0 0 0 0 0 127 0" result="hardAlpha"/>
<feOffset dy="1"/>
<feGaussianBlur stdDeviation="3.125"/>
<feComposite in2="hardAlpha" operator="out"/>
<feColorMatrix type="matrix" values="0 0 0 0 0.529412 0 0 0 0 0.533333 0 0 0 0 0.827451 0 0 0 1 0"/>
<feBlend mode="normal" in2="BackgroundImageFix" result="effect1_dropShadow_188_110"/>
<feBlend mode="normal" in="SourceGraphic" in2="effect1_dropShadow_188_110" result="shape"/>
</filter>
<filter id="filter9_dd_188_110" x="18.25" y="18.25" width="22.5137" height="22.5127" filterUnits="userSpaceOnUse" color-interpolation-filters="sRGB">
<feFlood flood-opacity="0" result="BackgroundImageFix"/>
<feColorMatrix in="SourceAlpha" type="matrix" values="0 0 0 0 0 0 0 0 0 0 0 0 0 0 0 0 0 0 127 0" result="hardAlpha"/>
<feOffset dy="1"/>
<feGaussianBlur stdDeviation="3.125"/>
<feComposite in2="hardAlpha" operator="out"/>
<feColorMatrix type="matrix" values="0 0 0 0 0.529412 0 0 0 0 0.533333 0 0 0 0 0.827451 0 0 0 1 0"/>
<feBlend mode="normal" in2="BackgroundImageFix" result="effect1_dropShadow_188_110"/>
<feColorMatrix in="SourceAlpha" type="matrix" values="0 0 0 0 0 0 0 0 0 0 0 0 0 0 0 0 0 0 127 0" result="hardAlpha"/>
<feOffset dy="1"/>
<feGaussianBlur stdDeviation="3.125"/>
<feComposite in2="hardAlpha" operator="out"/>
<feColorMatrix type="matrix" values="0 0 0 0 0.529412 0 0 0 0 0.533333 0 0 0 0 0.827451 0 0 0 1 0"/>
<feBlend mode="normal" in2="effect1_dropShadow_188_110" result="effect2_dropShadow_188_110"/>
<feBlend mode="normal" in="SourceGraphic" in2="effect2_dropShadow_188_110" result="shape"/>
</filter>
<filter id="filter10_dd_188_110" x="0.554688" y="12.3623" width="52.291" height="45.3652" filterUnits="userSpaceOnUse" color-interpolation-filters="sRGB">
<feFlood flood-opacity="0" result="BackgroundImageFix"/>
<feColorMatrix in="SourceAlpha" type="matrix" values="0 0 0 0 0 0 0 0 0 0 0 0 0 0 0 0 0 0 127 0" result="hardAlpha"/>
<feOffset dy="1"/>
<feGaussianBlur stdDeviation="0.5"/>
<feComposite in2="hardAlpha" operator="out"/>
<feColorMatrix type="matrix" values="0 0 0 0 0 0 0 0 0 0 0 0 0 0 0 0 0 0 0.25 0"/>
<feBlend mode="normal" in2="BackgroundImageFix" result="effect1_dropShadow_188_110"/>
<feColorMatrix in="SourceAlpha" type="matrix" values="0 0 0 0 0 0 0 0 0 0 0 0 0 0 0 0 0 0 127 0" result="hardAlpha"/>
<feOffset dy="1"/>
<feGaussianBlur stdDeviation="3.125"/>
<feComposite in2="hardAlpha" operator="out"/>
<feColorMatrix type="matrix" values="0 0 0 0 0.529412 0 0 0 0 0.533333 0 0 0 0 0.827451 0 0 0 1 0"/>
<feBlend mode="normal" in2="effect1_dropShadow_188_110" result="effect2_dropShadow_188_110"/>
<feBlend mode="normal" in="SourceGraphic" in2="effect2_dropShadow_188_110" result="shape"/>
</filter>
<linearGradient id="paint0_linear_188_110" x1="28.9991" y1="9.69127" x2="28.9991" y2="46.3087" gradientUnits="userSpaceOnUse">
<stop stop-color="#8788D3"/>
<stop offset="0.458333" stop-color="#8687E6"/>
<stop offset="0.760417" stop-color="#000203" stop-opacity="0.0113637"/>
</linearGradient>
</defs>
</svg>
