<svg width="57" height="56" viewBox="0 0 57 56" fill="none" xmlns="http://www.w3.org/2000/svg">
<g filter="url(#filter0_dd_188_155)">
<path d="M17.5605 9.05951C34.1064 0.986273 48.9659 13.5958 48.9659 26.6814" stroke="#FAFF00" stroke-width="2.2071"/>
</g>
<circle cx="28.0321" cy="27.0297" r="15.3895" stroke="#FAFF00" stroke-width="1.32426"/>
<g filter="url(#filter1_d_188_155)">
<path d="M15.4281 19.2096C16.3453 17.5634 18.0839 16.0374 18.0839 16.0374" stroke="#FAFF00" stroke-width="1.98639"/>
</g>
<g filter="url(#filter2_d_188_155)">
<path d="M19.1345 15.1054C20.5677 13.8819 22.7289 13.0571 22.7289 13.0571" stroke="#FAFF00" stroke-width="1.98639"/>
</g>
<g filter="url(#filter3_d_188_155)">
<path d="M23.8574 12.7331C25.6565 12.1725 27.9679 12.2651 27.9679 12.2651" stroke="#FAFF00" stroke-width="1.98639"/>
</g>
<g filter="url(#filter4_d_188_155)">
<path d="M29.2338 12.2906C31.1177 12.3355 33.2778 13.1632 33.2778 13.1632" stroke="#FAFF00" stroke-width="1.98639"/>
</g>
<g filter="url(#filter5_d_188_155)">
<path d="M38.9835 16.9105C40.3107 18.2482 41.2948 20.3417 41.2948 20.3417" stroke="#FAFF00" stroke-width="1.98639"/>
</g>
<g filter="url(#filter6_d_188_155)">
<path d="M38.7367 37.0266C37.5287 38.4729 35.5361 39.648 35.5361 39.648" stroke="#FAFF00" stroke-width="1.98639"/>
</g>
<g filter="url(#filter7_d_188_155)">
<path d="M29.2017 41.5413C27.3397 41.831 25.0671 41.3992 25.0671 41.3992" stroke="#FAFF00" stroke-width="1.98639"/>
</g>
<g filter="url(#filter8_d_188_155)">
<path d="M23.8574 41.0649C22.0503 40.5304 20.1806 39.1682 20.1806 39.1682" stroke="#FAFF00" stroke-width="1.98639"/>
</g>
<circle cx="27.9427" cy="26.943" r="17.0932" transform="rotate(29.9131 27.9427 26.943)" stroke="url(#paint0_linear_188_155)" stroke-width="0.88284"/>
<g filter="url(#filter9_d_188_155)">
<path d="M10.6579 17.5977C-1.00197 42.722 30.5782 56.9416 43.6336 38.9708" stroke="#FAFF00" stroke-width="2.86923"/>
</g>
<g filter="url(#filter10_dd_188_155)">
<path d="M29.1613 26.0139V24.9709C29.4965 24.8278 29.8394 24.7204 30.19 24.6488C30.5403 24.5772 30.9084 24.5414 31.2944 24.5414C31.5585 24.5414 31.8175 24.5619 32.0714 24.6028C32.3254 24.6437 32.5742 24.6948 32.818 24.7562V25.7378C32.5742 25.6458 32.328 25.5769 32.0793 25.5311C31.8303 25.4849 31.5686 25.4617 31.2944 25.4617C30.9084 25.4617 30.5376 25.5104 30.1821 25.6078C29.8266 25.7047 29.4863 25.8401 29.1613 26.0139ZM29.1613 29.3884V28.3454C29.4965 28.2022 29.8394 28.0949 30.19 28.0233C30.5403 27.9517 30.9084 27.9159 31.2944 27.9159C31.5585 27.9159 31.8175 27.9364 32.0714 27.9773C32.3254 28.0182 32.5742 28.0693 32.818 28.1306V29.1123C32.5742 29.0203 32.328 28.9514 32.0793 28.9055C31.8303 28.8593 31.5686 28.8362 31.2944 28.8362C30.9084 28.8362 30.5376 28.8822 30.1821 28.9743C29.8266 29.0663 29.4863 29.2043 29.1613 29.3884ZM29.1613 27.7012V26.6581C29.4965 26.515 29.8394 26.4076 30.19 26.336C30.5403 26.2645 30.9084 26.2287 31.2944 26.2287C31.5585 26.2287 31.8175 26.2491 32.0714 26.29C32.3254 26.3309 32.5742 26.3821 32.818 26.4434V27.4251C32.5742 27.333 32.328 27.2641 32.0793 27.2183C31.8303 27.1721 31.5686 27.149 31.2944 27.149C30.9084 27.149 30.5376 27.1977 30.1821 27.295C29.8266 27.3919 29.4863 27.5273 29.1613 27.7012ZM24.5903 29.7565C25.0677 29.7565 25.5325 29.8101 25.9847 29.9173C26.4366 30.0248 26.8859 30.186 27.3329 30.4007V24.3574C26.9164 24.112 26.4746 23.9279 26.0073 23.8052C25.54 23.6825 25.0677 23.6211 24.5903 23.6211C24.2246 23.6211 23.8616 23.6569 23.5012 23.7285C23.1404 23.8001 22.7924 23.9074 22.4572 24.0506V30.1247C22.8127 30.0019 23.1658 29.9099 23.5164 29.8486C23.8667 29.7872 24.2246 29.7565 24.5903 29.7565ZM28.5518 30.4007C28.9987 30.186 29.4483 30.0248 29.9005 29.9173C30.3523 29.8101 30.8169 29.7565 31.2944 29.7565C31.66 29.7565 32.0182 29.7872 32.3688 29.8486C32.7191 29.9099 33.0719 30.0019 33.4275 30.1247V24.0506C33.0923 23.9074 32.7445 23.8001 32.3841 23.7285C32.0233 23.6569 31.66 23.6211 31.2944 23.6211C30.8169 23.6211 30.3446 23.6825 29.8774 23.8052C29.4101 23.9279 28.9683 24.112 28.5518 24.3574V30.4007ZM27.9423 32.2107C27.4548 31.8221 26.9266 31.5205 26.3577 31.3057C25.7889 31.091 25.1998 30.9836 24.5903 30.9836C24.1637 30.9836 23.7448 31.0398 23.3336 31.1523C22.922 31.2648 22.5283 31.4233 22.1525 31.6278C21.9392 31.7403 21.7336 31.7352 21.5357 31.6125C21.3374 31.4898 21.2383 31.3108 21.2383 31.0756V23.6825C21.2383 23.57 21.2663 23.4626 21.3224 23.3604C21.3781 23.2581 21.4617 23.1814 21.5735 23.1303C22.0407 22.8849 22.5283 22.7008 23.0362 22.5781C23.5441 22.4554 24.0621 22.394 24.5903 22.394C25.1795 22.394 25.756 22.4707 26.32 22.6241C26.8835 22.7775 27.4243 23.0076 27.9423 23.3144C28.4604 23.0076 29.0014 22.7775 29.5653 22.6241C30.1289 22.4707 30.7052 22.394 31.2944 22.394C31.8226 22.394 32.3406 22.4554 32.8485 22.5781C33.3564 22.7008 33.8439 22.8849 34.3112 23.1303C34.4229 23.1814 34.5068 23.2581 34.5629 23.3604C34.6186 23.4626 34.6464 23.57 34.6464 23.6825V31.0756C34.6464 31.3108 34.5474 31.4898 34.3496 31.6125C34.1513 31.7352 33.9455 31.7403 33.7322 31.6278C33.3564 31.4233 32.9627 31.2648 32.5511 31.1523C32.1399 31.0398 31.721 30.9836 31.2944 30.9836C30.6849 30.9836 30.0958 31.091 29.5269 31.3057C28.9581 31.5205 28.4299 31.8221 27.9423 32.2107Z" fill="#FAFF00"/>
</g>
<defs>
<filter id="filter0_dd_188_155" x="11.0904" y="0.382606" width="44.9657" height="33.2425" filterUnits="userSpaceOnUse" color-interpolation-filters="sRGB">
<feFlood flood-opacity="0" result="BackgroundImageFix"/>
<feColorMatrix in="SourceAlpha" type="matrix" values="0 0 0 0 0 0 0 0 0 0 0 0 0 0 0 0 0 0 127 0" result="hardAlpha"/>
<feOffset dy="0.957722"/>
<feGaussianBlur stdDeviation="2.99288"/>
<feComposite in2="hardAlpha" operator="out"/>
<feColorMatrix type="matrix" values="0 0 0 0 0.98 0 0 0 0 1 0 0 0 0 0 0 0 0 1 0"/>
<feBlend mode="normal" in2="BackgroundImageFix" result="effect1_dropShadow_188_155"/>
<feColorMatrix in="SourceAlpha" type="matrix" values="0 0 0 0 0 0 0 0 0 0 0 0 0 0 0 0 0 0 127 0" result="hardAlpha"/>
<feOffset dy="0.957722"/>
<feGaussianBlur stdDeviation="2.99288"/>
<feComposite in2="hardAlpha" operator="out"/>
<feColorMatrix type="matrix" values="0 0 0 0 0.98 0 0 0 0 1 0 0 0 0 0 0 0 0 1 0"/>
<feBlend mode="normal" in2="effect1_dropShadow_188_155" result="effect2_dropShadow_188_155"/>
<feBlend mode="normal" in="SourceGraphic" in2="effect2_dropShadow_188_155" result="shape"/>
</filter>
<filter id="filter1_d_188_155" x="8.57479" y="10.263" width="16.1512" height="16.3734" filterUnits="userSpaceOnUse" color-interpolation-filters="sRGB">
<feFlood flood-opacity="0" result="BackgroundImageFix"/>
<feColorMatrix in="SourceAlpha" type="matrix" values="0 0 0 0 0 0 0 0 0 0 0 0 0 0 0 0 0 0 127 0" result="hardAlpha"/>
<feOffset dy="0.957722"/>
<feGaussianBlur stdDeviation="2.99288"/>
<feComposite in2="hardAlpha" operator="out"/>
<feColorMatrix type="matrix" values="0 0 0 0 0.98 0 0 0 0 1 0 0 0 0 0 0 0 0 1 0"/>
<feBlend mode="normal" in2="BackgroundImageFix" result="effect1_dropShadow_188_155"/>
<feBlend mode="normal" in="SourceGraphic" in2="effect1_dropShadow_188_155" result="shape"/>
</filter>
<filter id="filter2_d_188_155" x="12.5045" y="7.10136" width="16.5653" height="15.703" filterUnits="userSpaceOnUse" color-interpolation-filters="sRGB">
<feFlood flood-opacity="0" result="BackgroundImageFix"/>
<feColorMatrix in="SourceAlpha" type="matrix" values="0 0 0 0 0 0 0 0 0 0 0 0 0 0 0 0 0 0 127 0" result="hardAlpha"/>
<feOffset dy="0.957722"/>
<feGaussianBlur stdDeviation="2.99288"/>
<feComposite in2="hardAlpha" operator="out"/>
<feColorMatrix type="matrix" values="0 0 0 0 0.98 0 0 0 0 1 0 0 0 0 0 0 0 0 1 0"/>
<feBlend mode="normal" in2="BackgroundImageFix" result="effect1_dropShadow_188_155"/>
<feBlend mode="normal" in="SourceGraphic" in2="effect1_dropShadow_188_155" result="shape"/>
</filter>
<filter id="filter3_d_188_155" x="17.5767" y="6.23807" width="16.4168" height="14.3866" filterUnits="userSpaceOnUse" color-interpolation-filters="sRGB">
<feFlood flood-opacity="0" result="BackgroundImageFix"/>
<feColorMatrix in="SourceAlpha" type="matrix" values="0 0 0 0 0 0 0 0 0 0 0 0 0 0 0 0 0 0 127 0" result="hardAlpha"/>
<feOffset dy="0.957722"/>
<feGaussianBlur stdDeviation="2.99288"/>
<feComposite in2="hardAlpha" operator="out"/>
<feColorMatrix type="matrix" values="0 0 0 0 0.98 0 0 0 0 1 0 0 0 0 0 0 0 0 1 0"/>
<feBlend mode="normal" in2="BackgroundImageFix" result="effect1_dropShadow_188_155"/>
<feBlend mode="normal" in="SourceGraphic" in2="effect1_dropShadow_188_155" result="shape"/>
</filter>
<filter id="filter4_d_188_155" x="23.2252" y="6.26981" width="16.3934" height="14.7645" filterUnits="userSpaceOnUse" color-interpolation-filters="sRGB">
<feFlood flood-opacity="0" result="BackgroundImageFix"/>
<feColorMatrix in="SourceAlpha" type="matrix" values="0 0 0 0 0 0 0 0 0 0 0 0 0 0 0 0 0 0 127 0" result="hardAlpha"/>
<feOffset dy="0.957722"/>
<feGaussianBlur stdDeviation="2.99288"/>
<feComposite in2="hardAlpha" operator="out"/>
<feColorMatrix type="matrix" values="0 0 0 0 0.98 0 0 0 0 1 0 0 0 0 0 0 0 0 1 0"/>
<feBlend mode="normal" in2="BackgroundImageFix" result="effect1_dropShadow_188_155"/>
<feBlend mode="normal" in="SourceGraphic" in2="effect1_dropShadow_188_155" result="shape"/>
</filter>
<filter id="filter5_d_188_155" x="32.2935" y="11.1829" width="15.8856" height="16.5252" filterUnits="userSpaceOnUse" color-interpolation-filters="sRGB">
<feFlood flood-opacity="0" result="BackgroundImageFix"/>
<feColorMatrix in="SourceAlpha" type="matrix" values="0 0 0 0 0 0 0 0 0 0 0 0 0 0 0 0 0 0 127 0" result="hardAlpha"/>
<feOffset dy="0.957722"/>
<feGaussianBlur stdDeviation="2.99288"/>
<feComposite in2="hardAlpha" operator="out"/>
<feColorMatrix type="matrix" values="0 0 0 0 0.98 0 0 0 0 1 0 0 0 0 0 0 0 0 1 0"/>
<feBlend mode="normal" in2="BackgroundImageFix" result="effect1_dropShadow_188_155"/>
<feBlend mode="normal" in="SourceGraphic" in2="effect1_dropShadow_188_155" result="shape"/>
</filter>
<filter id="filter6_d_188_155" x="29.0455" y="31.3621" width="16.4383" height="16.0848" filterUnits="userSpaceOnUse" color-interpolation-filters="sRGB">
<feFlood flood-opacity="0" result="BackgroundImageFix"/>
<feColorMatrix in="SourceAlpha" type="matrix" values="0 0 0 0 0 0 0 0 0 0 0 0 0 0 0 0 0 0 127 0" result="hardAlpha"/>
<feOffset dy="0.957722"/>
<feGaussianBlur stdDeviation="2.99288"/>
<feComposite in2="hardAlpha" operator="out"/>
<feColorMatrix type="matrix" values="0 0 0 0 0.98 0 0 0 0 1 0 0 0 0 0 0 0 0 1 0"/>
<feBlend mode="normal" in2="BackgroundImageFix" result="effect1_dropShadow_188_155"/>
<feBlend mode="normal" in="SourceGraphic" in2="effect1_dropShadow_188_155" result="shape"/>
</filter>
<filter id="filter7_d_188_155" x="18.8971" y="35.3953" width="16.4422" height="14.1825" filterUnits="userSpaceOnUse" color-interpolation-filters="sRGB">
<feFlood flood-opacity="0" result="BackgroundImageFix"/>
<feColorMatrix in="SourceAlpha" type="matrix" values="0 0 0 0 0 0 0 0 0 0 0 0 0 0 0 0 0 0 127 0" result="hardAlpha"/>
<feOffset dy="0.957722"/>
<feGaussianBlur stdDeviation="2.99288"/>
<feComposite in2="hardAlpha" operator="out"/>
<feColorMatrix type="matrix" values="0 0 0 0 0.98 0 0 0 0 1 0 0 0 0 0 0 0 0 1 0"/>
<feBlend mode="normal" in2="BackgroundImageFix" result="effect1_dropShadow_188_155"/>
<feBlend mode="normal" in="SourceGraphic" in2="effect1_dropShadow_188_155" result="shape"/>
</filter>
<filter id="filter8_d_188_155" x="13.6099" y="33.3372" width="16.5145" height="15.6234" filterUnits="userSpaceOnUse" color-interpolation-filters="sRGB">
<feFlood flood-opacity="0" result="BackgroundImageFix"/>
<feColorMatrix in="SourceAlpha" type="matrix" values="0 0 0 0 0 0 0 0 0 0 0 0 0 0 0 0 0 0 127 0" result="hardAlpha"/>
<feOffset dy="0.957722"/>
<feGaussianBlur stdDeviation="2.99288"/>
<feComposite in2="hardAlpha" operator="out"/>
<feColorMatrix type="matrix" values="0 0 0 0 0.98 0 0 0 0 1 0 0 0 0 0 0 0 0 1 0"/>
<feBlend mode="normal" in2="BackgroundImageFix" result="effect1_dropShadow_188_155"/>
<feBlend mode="normal" in="SourceGraphic" in2="effect1_dropShadow_188_155" result="shape"/>
</filter>
<filter id="filter9_d_188_155" x="0.699787" y="11.9656" width="50.0809" height="43.4476" filterUnits="userSpaceOnUse" color-interpolation-filters="sRGB">
<feFlood flood-opacity="0" result="BackgroundImageFix"/>
<feColorMatrix in="SourceAlpha" type="matrix" values="0 0 0 0 0 0 0 0 0 0 0 0 0 0 0 0 0 0 127 0" result="hardAlpha"/>
<feOffset dy="0.957722"/>
<feGaussianBlur stdDeviation="2.99288"/>
<feComposite in2="hardAlpha" operator="out"/>
<feColorMatrix type="matrix" values="0 0 0 0 0.98 0 0 0 0 1 0 0 0 0 0 0 0 0 1 0"/>
<feBlend mode="normal" in2="BackgroundImageFix" result="effect1_dropShadow_188_155"/>
<feBlend mode="normal" in="SourceGraphic" in2="effect1_dropShadow_188_155" result="shape"/>
</filter>
<filter id="filter10_dd_188_155" x="15.2161" y="17.3354" width="25.4526" height="21.8608" filterUnits="userSpaceOnUse" color-interpolation-filters="sRGB">
<feFlood flood-opacity="0" result="BackgroundImageFix"/>
<feColorMatrix in="SourceAlpha" type="matrix" values="0 0 0 0 0 0 0 0 0 0 0 0 0 0 0 0 0 0 127 0" result="hardAlpha"/>
<feOffset dy="0.96355"/>
<feGaussianBlur stdDeviation="3.01109"/>
<feComposite in2="hardAlpha" operator="out"/>
<feColorMatrix type="matrix" values="0 0 0 0 0.980392 0 0 0 0 1 0 0 0 0 0 0 0 0 1 0"/>
<feBlend mode="normal" in2="BackgroundImageFix" result="effect1_dropShadow_188_155"/>
<feColorMatrix in="SourceAlpha" type="matrix" values="0 0 0 0 0 0 0 0 0 0 0 0 0 0 0 0 0 0 127 0" result="hardAlpha"/>
<feOffset dy="0.96355"/>
<feGaussianBlur stdDeviation="3.01109"/>
<feComposite in2="hardAlpha" operator="out"/>
<feColorMatrix type="matrix" values="0 0 0 0 0.980392 0 0 0 0 1 0 0 0 0 0 0 0 0 1 0"/>
<feBlend mode="normal" in2="effect1_dropShadow_188_155" result="effect2_dropShadow_188_155"/>
<feBlend mode="normal" in="SourceGraphic" in2="effect2_dropShadow_188_155" result="shape"/>
</filter>
<linearGradient id="paint0_linear_188_155" x1="27.9427" y1="9.40837" x2="27.9427" y2="44.4777" gradientUnits="userSpaceOnUse">
<stop stop-color="#FAFF00"/>
<stop offset="0.458333" stop-color="#BCBF34"/>
<stop offset="0.760417" stop-color="#000203" stop-opacity="0.0113637"/>
</linearGradient>
</defs>
</svg>
