<svg width="57" height="56" viewBox="0 0 57 56" fill="none" xmlns="http://www.w3.org/2000/svg">
<g filter="url(#filter0_dd_188_155)">
<path d="M17.5605 9.05951C34.1064 0.986273 48.9659 13.5958 48.9659 26.6814" stroke="#FAFF00" stroke-width="2.2071"/>
</g>
<circle cx="28.0321" cy="27.0297" r="15.3895" stroke="#FAFF00" stroke-width="1.32426"/>
<g filter="url(#filter1_d_188_155)">
<path d="M15.4281 19.2096C16.3453 17.5634 18.0839 16.0374 18.0839 16.0374" stroke="#FAFF00" stroke-width="1.98639"/>
</g>
<g filter="url(#filter2_d_188_155)">
<path d="M19.1345 15.1054C20.5677 13.8819 22.7289 13.0571 22.7289 13.0571" stroke="#FAFF00" stroke-width="1.98639"/>
</g>
<g filter="url(#filter3_d_188_155)">
<path d="M23.8574 12.7331C25.6565 12.1725 27.9679 12.2651 27.9679 12.2651" stroke="#FAFF00" stroke-width="1.98639"/>
</g>
<g filter="url(#filter4_d_188_155)">
<path d="M29.2338 12.2906C31.1177 12.3355 33.2778 13.1632 33.2778 13.1632" stroke="#FAFF00" stroke-width="1.98639"/>
</g>
<g filter="url(#filter5_d_188_155)">
<path d="M38.9835 16.9105C40.3107 18.2482 41.2948 20.3417 41.2948 20.3417" stroke="#FAFF00" stroke-width="1.98639"/>
</g>
<g filter="url(#filter6_d_188_155)">
<path d="M38.7367 37.0266C37.5287 38.4729 35.5361 39.648 35.5361 39.648" stroke="#FAFF00" stroke-width="1.98639"/>
</g>
<g filter="url(#filter7_d_188_155)">
<path d="M29.2017 41.5413C27.3397 41.831 25.0671 41.3992 25.0671 41.3992" stroke="#FAFF00" stroke-width="1.98639"/>
</g>
<g filter="url(#filter8_d_188_155)">
<path d="M23.8574 41.0649C22.0503 40.5304 20.1806 39.1682 20.1806 39.1682" stroke="#FAFF00" stroke-width="1.98639"/>
</g>
<circle cx="27.9427" cy="26.943" r="17.0932" transform="rotate(29.9131 27.9427 26.943)" stroke="url(#paint0_linear_188_155)" stroke-width="0.88284"/>
<g filter="url(#filter9_d_188_155)">
<path d="M10.6579 17.5977C-1.00197 42.722 30.5782 56.9416 43.6336 38.9708" stroke="#FAFF00" stroke-width="2.86923"/>
</g>
<g filter="url(#filter10_dd_188_155)">
<path d="M29.6623 25.8714V24.4678C30.1134 24.2751 30.5749 24.1307 31.0467 24.0343C31.5181 23.938 32.0135 23.8898 32.5329 23.8898C32.8883 23.8898 33.2369 23.9174 33.5786 23.9724C33.9204 24.0274 34.2553 24.0963 34.5833 24.1788V25.4999C34.2553 25.376 33.9239 25.2833 33.5893 25.2216C33.2541 25.1594 32.902 25.1283 32.5329 25.1283C32.0135 25.1283 31.5145 25.1938 31.0361 25.3248C30.5576 25.4553 30.0997 25.6375 29.6623 25.8714ZM29.6623 30.4126V29.009C30.1134 28.8163 30.5749 28.6718 31.0467 28.5755C31.5181 28.4792 32.0135 28.431 32.5329 28.431C32.8883 28.431 33.2369 28.4585 33.5786 28.5136C33.9204 28.5686 34.2553 28.6374 34.5833 28.72V30.0411C34.2553 29.9172 33.9239 29.8245 33.5893 29.7628C33.2541 29.7006 32.902 29.6695 32.5329 29.6695C32.0135 29.6695 31.5145 29.7314 31.0361 29.8553C30.5576 29.9791 30.0997 30.1649 29.6623 30.4126ZM29.6623 28.142V26.7384C30.1134 26.5457 30.5749 26.4012 31.0467 26.3049C31.5181 26.2086 32.0135 26.1604 32.5329 26.1604C32.8883 26.1604 33.2369 26.1879 33.5786 26.243C33.9204 26.298 34.2553 26.3668 34.5833 26.4494V27.7705C34.2553 27.6466 33.9239 27.5539 33.5893 27.4922C33.2541 27.43 32.902 27.3989 32.5329 27.3989C32.0135 27.3989 31.5145 27.4644 31.0361 27.5954C30.5576 27.7259 30.0997 27.9081 29.6623 28.142ZM23.511 30.908C24.1534 30.908 24.779 30.9801 25.3875 31.1243C25.9956 31.2691 26.6003 31.486 27.2018 31.775V23.6421C26.6413 23.3119 26.0467 23.0642 25.4179 22.899C24.7891 22.7339 24.1534 22.6513 23.511 22.6513C23.0189 22.6513 22.5303 22.6995 22.0453 22.7958C21.5598 22.8922 21.0914 23.0366 20.6404 23.2293V31.4034C21.1188 31.2383 21.5939 31.1144 22.0658 31.0319C22.5371 30.9493 23.0189 30.908 23.511 30.908ZM28.8421 31.775C29.4436 31.486 30.0486 31.2691 30.6572 31.1243C31.2652 30.9801 31.8904 30.908 32.5329 30.908C33.025 30.908 33.507 30.9493 33.9789 31.0319C34.4502 31.1144 34.9251 31.2383 35.4035 31.4034V23.2293C34.9524 23.0366 34.4844 22.8922 33.9994 22.7958C33.5138 22.6995 33.025 22.6513 32.5329 22.6513C31.8904 22.6513 31.2548 22.7339 30.626 22.899C29.9972 23.0642 29.4026 23.3119 28.8421 23.6421V31.775ZM28.0219 34.2107C27.3658 33.6878 26.655 33.2818 25.8895 32.9928C25.124 32.7038 24.3311 32.5594 23.511 32.5594C22.9368 32.5594 22.3731 32.635 21.8198 32.7864C21.2659 32.9378 20.736 33.1511 20.2303 33.4263C19.9432 33.5777 19.6665 33.5708 19.4002 33.4057C19.1334 33.2405 19 32.9997 19 32.6832V22.7339C19 22.5825 19.0377 22.438 19.1132 22.3004C19.1881 22.1628 19.3007 22.0596 19.4511 21.9908C20.0799 21.6605 20.736 21.4128 21.4195 21.2477C22.103 21.0826 22.8001 21 23.511 21C24.3038 21 25.0797 21.1032 25.8386 21.3096C26.597 21.516 27.3248 21.8257 28.0219 22.2385C28.7191 21.8257 29.4471 21.516 30.2061 21.3096C30.9645 21.1032 31.7401 21 32.5329 21C33.2437 21 33.9409 21.0826 34.6243 21.2477C35.3078 21.4128 35.964 21.6605 36.5928 21.9908C36.7431 22.0596 36.856 22.1628 36.9315 22.3004C37.0064 22.438 37.0439 22.5825 37.0439 22.7339V32.6832C37.0439 32.9997 36.9107 33.2405 36.6444 33.4057C36.3776 33.5708 36.1007 33.5777 35.8136 33.4263C35.3078 33.1511 34.778 32.9378 34.2241 32.7864C33.6708 32.635 33.107 32.5594 32.5329 32.5594C31.7127 32.5594 30.9199 32.7038 30.1544 32.9928C29.3889 33.2818 28.6781 33.6878 28.0219 34.2107Z" fill="#FAFF00"/>
</g>
<defs>
<filter id="filter0_dd_188_155" x="11.0904" y="0.382606" width="44.9657" height="33.2425" filterUnits="userSpaceOnUse" color-interpolation-filters="sRGB">
<feFlood flood-opacity="0" result="BackgroundImageFix"/>
<feColorMatrix in="SourceAlpha" type="matrix" values="0 0 0 0 0 0 0 0 0 0 0 0 0 0 0 0 0 0 127 0" result="hardAlpha"/>
<feOffset dy="0.957722"/>
<feGaussianBlur stdDeviation="2.99288"/>
<feComposite in2="hardAlpha" operator="out"/>
<feColorMatrix type="matrix" values="0 0 0 0 0.98 0 0 0 0 1 0 0 0 0 0 0 0 0 1 0"/>
<feBlend mode="normal" in2="BackgroundImageFix" result="effect1_dropShadow_188_155"/>
<feColorMatrix in="SourceAlpha" type="matrix" values="0 0 0 0 0 0 0 0 0 0 0 0 0 0 0 0 0 0 127 0" result="hardAlpha"/>
<feOffset dy="0.957722"/>
<feGaussianBlur stdDeviation="2.99288"/>
<feComposite in2="hardAlpha" operator="out"/>
<feColorMatrix type="matrix" values="0 0 0 0 0.98 0 0 0 0 1 0 0 0 0 0 0 0 0 1 0"/>
<feBlend mode="normal" in2="effect1_dropShadow_188_155" result="effect2_dropShadow_188_155"/>
<feBlend mode="normal" in="SourceGraphic" in2="effect2_dropShadow_188_155" result="shape"/>
</filter>
<filter id="filter1_d_188_155" x="8.57479" y="10.263" width="16.1512" height="16.3734" filterUnits="userSpaceOnUse" color-interpolation-filters="sRGB">
<feFlood flood-opacity="0" result="BackgroundImageFix"/>
<feColorMatrix in="SourceAlpha" type="matrix" values="0 0 0 0 0 0 0 0 0 0 0 0 0 0 0 0 0 0 127 0" result="hardAlpha"/>
<feOffset dy="0.957722"/>
<feGaussianBlur stdDeviation="2.99288"/>
<feComposite in2="hardAlpha" operator="out"/>
<feColorMatrix type="matrix" values="0 0 0 0 0.98 0 0 0 0 1 0 0 0 0 0 0 0 0 1 0"/>
<feBlend mode="normal" in2="BackgroundImageFix" result="effect1_dropShadow_188_155"/>
<feBlend mode="normal" in="SourceGraphic" in2="effect1_dropShadow_188_155" result="shape"/>
</filter>
<filter id="filter2_d_188_155" x="12.5045" y="7.10136" width="16.5653" height="15.703" filterUnits="userSpaceOnUse" color-interpolation-filters="sRGB">
<feFlood flood-opacity="0" result="BackgroundImageFix"/>
<feColorMatrix in="SourceAlpha" type="matrix" values="0 0 0 0 0 0 0 0 0 0 0 0 0 0 0 0 0 0 127 0" result="hardAlpha"/>
<feOffset dy="0.957722"/>
<feGaussianBlur stdDeviation="2.99288"/>
<feComposite in2="hardAlpha" operator="out"/>
<feColorMatrix type="matrix" values="0 0 0 0 0.98 0 0 0 0 1 0 0 0 0 0 0 0 0 1 0"/>
<feBlend mode="normal" in2="BackgroundImageFix" result="effect1_dropShadow_188_155"/>
<feBlend mode="normal" in="SourceGraphic" in2="effect1_dropShadow_188_155" result="shape"/>
</filter>
<filter id="filter3_d_188_155" x="17.5767" y="6.23807" width="16.4168" height="14.3866" filterUnits="userSpaceOnUse" color-interpolation-filters="sRGB">
<feFlood flood-opacity="0" result="BackgroundImageFix"/>
<feColorMatrix in="SourceAlpha" type="matrix" values="0 0 0 0 0 0 0 0 0 0 0 0 0 0 0 0 0 0 127 0" result="hardAlpha"/>
<feOffset dy="0.957722"/>
<feGaussianBlur stdDeviation="2.99288"/>
<feComposite in2="hardAlpha" operator="out"/>
<feColorMatrix type="matrix" values="0 0 0 0 0.98 0 0 0 0 1 0 0 0 0 0 0 0 0 1 0"/>
<feBlend mode="normal" in2="BackgroundImageFix" result="effect1_dropShadow_188_155"/>
<feBlend mode="normal" in="SourceGraphic" in2="effect1_dropShadow_188_155" result="shape"/>
</filter>
<filter id="filter4_d_188_155" x="23.2252" y="6.26981" width="16.3934" height="14.7645" filterUnits="userSpaceOnUse" color-interpolation-filters="sRGB">
<feFlood flood-opacity="0" result="BackgroundImageFix"/>
<feColorMatrix in="SourceAlpha" type="matrix" values="0 0 0 0 0 0 0 0 0 0 0 0 0 0 0 0 0 0 127 0" result="hardAlpha"/>
<feOffset dy="0.957722"/>
<feGaussianBlur stdDeviation="2.99288"/>
<feComposite in2="hardAlpha" operator="out"/>
<feColorMatrix type="matrix" values="0 0 0 0 0.98 0 0 0 0 1 0 0 0 0 0 0 0 0 1 0"/>
<feBlend mode="normal" in2="BackgroundImageFix" result="effect1_dropShadow_188_155"/>
<feBlend mode="normal" in="SourceGraphic" in2="effect1_dropShadow_188_155" result="shape"/>
</filter>
<filter id="filter5_d_188_155" x="32.2935" y="11.1829" width="15.8856" height="16.5252" filterUnits="userSpaceOnUse" color-interpolation-filters="sRGB">
<feFlood flood-opacity="0" result="BackgroundImageFix"/>
<feColorMatrix in="SourceAlpha" type="matrix" values="0 0 0 0 0 0 0 0 0 0 0 0 0 0 0 0 0 0 127 0" result="hardAlpha"/>
<feOffset dy="0.957722"/>
<feGaussianBlur stdDeviation="2.99288"/>
<feComposite in2="hardAlpha" operator="out"/>
<feColorMatrix type="matrix" values="0 0 0 0 0.98 0 0 0 0 1 0 0 0 0 0 0 0 0 1 0"/>
<feBlend mode="normal" in2="BackgroundImageFix" result="effect1_dropShadow_188_155"/>
<feBlend mode="normal" in="SourceGraphic" in2="effect1_dropShadow_188_155" result="shape"/>
</filter>
<filter id="filter6_d_188_155" x="29.0455" y="31.3621" width="16.4383" height="16.0848" filterUnits="userSpaceOnUse" color-interpolation-filters="sRGB">
<feFlood flood-opacity="0" result="BackgroundImageFix"/>
<feColorMatrix in="SourceAlpha" type="matrix" values="0 0 0 0 0 0 0 0 0 0 0 0 0 0 0 0 0 0 127 0" result="hardAlpha"/>
<feOffset dy="0.957722"/>
<feGaussianBlur stdDeviation="2.99288"/>
<feComposite in2="hardAlpha" operator="out"/>
<feColorMatrix type="matrix" values="0 0 0 0 0.98 0 0 0 0 1 0 0 0 0 0 0 0 0 1 0"/>
<feBlend mode="normal" in2="BackgroundImageFix" result="effect1_dropShadow_188_155"/>
<feBlend mode="normal" in="SourceGraphic" in2="effect1_dropShadow_188_155" result="shape"/>
</filter>
<filter id="filter7_d_188_155" x="18.8971" y="35.3953" width="16.4422" height="14.1825" filterUnits="userSpaceOnUse" color-interpolation-filters="sRGB">
<feFlood flood-opacity="0" result="BackgroundImageFix"/>
<feColorMatrix in="SourceAlpha" type="matrix" values="0 0 0 0 0 0 0 0 0 0 0 0 0 0 0 0 0 0 127 0" result="hardAlpha"/>
<feOffset dy="0.957722"/>
<feGaussianBlur stdDeviation="2.99288"/>
<feComposite in2="hardAlpha" operator="out"/>
<feColorMatrix type="matrix" values="0 0 0 0 0.98 0 0 0 0 1 0 0 0 0 0 0 0 0 1 0"/>
<feBlend mode="normal" in2="BackgroundImageFix" result="effect1_dropShadow_188_155"/>
<feBlend mode="normal" in="SourceGraphic" in2="effect1_dropShadow_188_155" result="shape"/>
</filter>
<filter id="filter8_d_188_155" x="13.6099" y="33.3372" width="16.5145" height="15.6234" filterUnits="userSpaceOnUse" color-interpolation-filters="sRGB">
<feFlood flood-opacity="0" result="BackgroundImageFix"/>
<feColorMatrix in="SourceAlpha" type="matrix" values="0 0 0 0 0 0 0 0 0 0 0 0 0 0 0 0 0 0 127 0" result="hardAlpha"/>
<feOffset dy="0.957722"/>
<feGaussianBlur stdDeviation="2.99288"/>
<feComposite in2="hardAlpha" operator="out"/>
<feColorMatrix type="matrix" values="0 0 0 0 0.98 0 0 0 0 1 0 0 0 0 0 0 0 0 1 0"/>
<feBlend mode="normal" in2="BackgroundImageFix" result="effect1_dropShadow_188_155"/>
<feBlend mode="normal" in="SourceGraphic" in2="effect1_dropShadow_188_155" result="shape"/>
</filter>
<filter id="filter9_d_188_155" x="0.699787" y="11.9656" width="50.0809" height="43.4476" filterUnits="userSpaceOnUse" color-interpolation-filters="sRGB">
<feFlood flood-opacity="0" result="BackgroundImageFix"/>
<feColorMatrix in="SourceAlpha" type="matrix" values="0 0 0 0 0 0 0 0 0 0 0 0 0 0 0 0 0 0 127 0" result="hardAlpha"/>
<feOffset dy="0.957722"/>
<feGaussianBlur stdDeviation="2.99288"/>
<feComposite in2="hardAlpha" operator="out"/>
<feColorMatrix type="matrix" values="0 0 0 0 0.98 0 0 0 0 1 0 0 0 0 0 0 0 0 1 0"/>
<feBlend mode="normal" in2="BackgroundImageFix" result="effect1_dropShadow_188_155"/>
<feBlend mode="normal" in="SourceGraphic" in2="effect1_dropShadow_188_155" result="shape"/>
</filter>
<filter id="filter10_dd_188_155" x="10.8957" y="14.1924" width="34.2516" height="29.4191" filterUnits="userSpaceOnUse" color-interpolation-filters="sRGB">
<feFlood flood-opacity="0" result="BackgroundImageFix"/>
<feColorMatrix in="SourceAlpha" type="matrix" values="0 0 0 0 0 0 0 0 0 0 0 0 0 0 0 0 0 0 127 0" result="hardAlpha"/>
<feOffset dy="1.29669"/>
<feGaussianBlur stdDeviation="4.05216"/>
<feComposite in2="hardAlpha" operator="out"/>
<feColorMatrix type="matrix" values="0 0 0 0 0.980392 0 0 0 0 1 0 0 0 0 0 0 0 0 1 0"/>
<feBlend mode="normal" in2="BackgroundImageFix" result="effect1_dropShadow_188_155"/>
<feColorMatrix in="SourceAlpha" type="matrix" values="0 0 0 0 0 0 0 0 0 0 0 0 0 0 0 0 0 0 127 0" result="hardAlpha"/>
<feOffset dy="1.29669"/>
<feGaussianBlur stdDeviation="4.05216"/>
<feComposite in2="hardAlpha" operator="out"/>
<feColorMatrix type="matrix" values="0 0 0 0 0.980392 0 0 0 0 1 0 0 0 0 0 0 0 0 1 0"/>
<feBlend mode="normal" in2="effect1_dropShadow_188_155" result="effect2_dropShadow_188_155"/>
<feBlend mode="normal" in="SourceGraphic" in2="effect2_dropShadow_188_155" result="shape"/>
</filter>
<linearGradient id="paint0_linear_188_155" x1="27.9427" y1="9.40837" x2="27.9427" y2="44.4777" gradientUnits="userSpaceOnUse">
<stop stop-color="#FAFF00"/>
<stop offset="0.458333" stop-color="#BCBF34"/>
<stop offset="0.760417" stop-color="#000203" stop-opacity="0.0113637"/>
</linearGradient>
</defs>
</svg>
